HIERARCHY
ROOT Hips
{
	OFFSET 0.000000 83.214638 0.000000
	CHANNELS 6 Xposition Yposition Zposition Xrotation Yrotation Zrotation
	JOINT Pelvis
	{
		OFFSET 0.000000 0.000000 0.000000
		CHANNELS 3 Xrotation Yrotation Zrotation
		JOINT LeftUpLeg
		{
			OFFSET 8.479700 -4.795502 -0.379100
			CHANNELS 3 Xrotation Yrotation Zrotation
			JOINT LeftLeg
			{
				OFFSET 0.024144 -32.555107 0.112900
				CHANNELS 3 Xrotation Yrotation Zrotation
				JOINT LeftFoot
				{
					OFFSET -0.024144 -32.638630 -3.012600
					CHANNELS 3 Xrotation Yrotation Zrotation
					JOINT LeftToeBase
					{
						OFFSET 0.970200 -13.225400 11.864200
						CHANNELS 3 Xrotation Yrotation Zrotation
						End Site
						{
							OFFSET 0.000000 12.319262 0.000000
						}
					}
					JOINT LFootTongue
					{
						OFFSET 1.142400 -1.059800 6.665200
						CHANNELS 3 Xrotation Yrotation Zrotation
						End Site
						{
							OFFSET 0.000000 12.319262 0.000000
						}
					}
				}
				JOINT LeftPantLeg
				{
					OFFSET 0.918482 -16.533964 -2.284700
					CHANNELS 3 Xrotation Yrotation Zrotation
					End Site
					{
						OFFSET 0.350399 24.744368 0.000000
					}
				}
			}
		}
		JOINT RightUpLeg
		{
			OFFSET -8.479700 -4.795502 -0.379100
			CHANNELS 3 Xrotation Yrotation Zrotation
			JOINT RightLeg
			{
				OFFSET -0.023144 -32.555092 0.112900
				CHANNELS 3 Xrotation Yrotation Zrotation
				JOINT RightFoot
				{
					OFFSET 0.023144 -32.638641 -3.012700
					CHANNELS 3 Xrotation Yrotation Zrotation
					JOINT RightToeBase
					{
						OFFSET -0.970200 -13.225400 11.864200
						CHANNELS 3 Xrotation Yrotation Zrotation
						End Site
						{
							OFFSET 0.000000 12.319244 0.000000
						}
					}
					JOINT RFootTongue
					{
						OFFSET -1.142200 -1.059800 6.665200
						CHANNELS 3 Xrotation Yrotation Zrotation
						End Site
						{
							OFFSET 0.000000 12.319243 0.000000
						}
					}
				}
				JOINT RightPantLeg
				{
					OFFSET -0.919482 -16.533978 -2.284800
					CHANNELS 3 Xrotation Yrotation Zrotation
					End Site
					{
						OFFSET -0.350400 24.744419 0.000000
					}
				}
			}
		}
	}
	JOINT Spine
	{
		OFFSET 0.000000 7.722000 1.166200
		CHANNELS 3 Xrotation Yrotation Zrotation
		JOINT Spine1
		{
			OFFSET 0.000000 12.024101 0.248800
			CHANNELS 3 Xrotation Yrotation Zrotation
			JOINT Spine2
			{
				OFFSET 0.000000 11.502998 -0.491200
				CHANNELS 3 Xrotation Yrotation Zrotation
				JOINT Neck
				{
					OFFSET 0.000000 18.430702 -3.123100
					CHANNELS 3 Xrotation Yrotation Zrotation
					JOINT Head
					{
						OFFSET 0.000000 9.051102 1.034000
						CHANNELS 3 Xrotation Yrotation Zrotation
						JOINT HairB
						{
							OFFSET 0.208400 24.786102 24.822300
							CHANNELS 3 Xrotation Yrotation Zrotation
							End Site
							{
								OFFSET 0.000000 32.263779 0.000000
							}
						}
						JOINT HairA
						{
							OFFSET -7.081100 24.428299 23.196600
							CHANNELS 3 Xrotation Yrotation Zrotation
							End Site
							{
								OFFSET 0.000000 32.263779 0.000000
							}
						}
						JOINT Hat
						{
							OFFSET 16.728800 15.048294 -15.439601
							CHANNELS 3 Xrotation Yrotation Zrotation
							End Site
							{
								OFFSET 0.000000 32.263779 0.000000
							}
						}
					}
				}
				JOINT LeftShoulder
				{
					OFFSET 6.197800 13.665199 -4.064700
					CHANNELS 3 Xrotation Yrotation Zrotation
					JOINT LeftArm
					{
						OFFSET 7.778100 -0.187103 -1.709300
						CHANNELS 3 Xrotation Yrotation Zrotation
						JOINT LeftForeArm
						{
							OFFSET 22.049376 0.000000 0.000000
							CHANNELS 3 Xrotation Yrotation Zrotation
							JOINT LeftHand
							{
								OFFSET 23.009392 0.000000 0.000000
								CHANNELS 3 Xrotation Yrotation Zrotation
								JOINT LeftHandThumb1
								{
									OFFSET 3.507191 -2.063065 3.133727
									CHANNELS 3 Xrotation Yrotation Zrotation
									JOINT LeftHandThumb2
									{
										OFFSET 3.101337 -1.790558 1.790558
										CHANNELS 3 Xrotation Yrotation Zrotation
										JOINT LeftHandThumb3
										{
											OFFSET 3.058640 -1.765907 1.765906
											CHANNELS 3 Xrotation Yrotation Zrotation
											End Site
											{
												OFFSET -0.415260 3.926476 -0.049563
											}
										}
									}
								}
								JOINT LeftHandIndex1
								{
									OFFSET 11.334419 -0.901459 3.706815
									CHANNELS 3 Xrotation Yrotation Zrotation
									JOINT LeftHandIndex2
									{
										OFFSET 3.283112 0.000000 0.000000
										CHANNELS 3 Xrotation Yrotation Zrotation
										JOINT LeftHandIndex3
										{
											OFFSET 3.323853 0.000000 0.000000
											CHANNELS 3 Xrotation Yrotation Zrotation
											End Site
											{
												OFFSET -1.135597 3.097809 0.402452
											}
										}
									}
								}
								JOINT LeftHandMiddle1
								{
									OFFSET 11.335861 0.000000 0.000000
									CHANNELS 3 Xrotation Yrotation Zrotation
									JOINT LeftHandMiddle2
									{
										OFFSET 3.410492 0.000000 0.000000
										CHANNELS 3 Xrotation Yrotation Zrotation
										JOINT LeftHandMiddle3
										{
											OFFSET 3.312172 0.000000 0.000000
											CHANNELS 3 Xrotation Yrotation Zrotation
											End Site
											{
												OFFSET -1.150200 3.080154 0.400270
											}
										}
									}
								}
								JOINT LeftHandRing1
								{
									OFFSET 11.514786 -0.013176 -3.003090
									CHANNELS 3 Xrotation Yrotation Zrotation
									JOINT LeftHandRing2
									{
										OFFSET 3.053307 0.000000 0.000000
										CHANNELS 3 Xrotation Yrotation Zrotation
										JOINT LeftHandRing3
										{
											OFFSET 3.295807 0.000000 0.000000
											CHANNELS 3 Xrotation Yrotation Zrotation
											End Site
											{
												OFFSET -1.281006 3.013344 0.375733
											}
										}
									}
								}
								JOINT LeftHandPinky1
								{
									OFFSET 10.518692 -0.960396 -5.730441
									CHANNELS 3 Xrotation Yrotation Zrotation
									JOINT LeftHandPinky2
									{
										OFFSET 2.861649 0.000000 0.000000
										CHANNELS 3 Xrotation Yrotation Zrotation
										JOINT LeftHandPinky3
										{
											OFFSET 2.863380 0.000000 0.000000
											CHANNELS 3 Xrotation Yrotation Zrotation
											End Site
											{
												OFFSET -0.843597 2.711159 0.369971
											}
										}
									}
								}
							}
							JOINT LSleeve
							{
								OFFSET 6.676277 -0.344902 -1.011730
								CHANNELS 3 Xrotation Yrotation Zrotation
								End Site
								{
									OFFSET 0.000000 14.885353 0.000000
								}
							}
						}
					}
				}
				JOINT RightShoulder
				{
					OFFSET -6.197800 13.665199 -4.064700
					CHANNELS 3 Xrotation Yrotation Zrotation
					JOINT RightArm
					{
						OFFSET -7.778100 -0.187103 -1.709300
						CHANNELS 3 Xrotation Yrotation Zrotation
						JOINT RightForeArm
						{
							OFFSET -22.049376 0.000000 0.000000
							CHANNELS 3 Xrotation Yrotation Zrotation
							JOINT RightHand
							{
								OFFSET -23.009392 0.000000 0.000000
								CHANNELS 3 Xrotation Yrotation Zrotation
								JOINT RightHandThumb1
								{
									OFFSET -3.507191 -2.063065 3.133727
									CHANNELS 3 Xrotation Yrotation Zrotation
									JOINT RightHandThumb2
									{
										OFFSET -3.101337 -1.790558 1.790558
										CHANNELS 3 Xrotation Yrotation Zrotation
										JOINT RightHandThumb3
										{
											OFFSET -3.058640 -1.765907 1.765906
											CHANNELS 3 Xrotation Yrotation Zrotation
											End Site
											{
												OFFSET 0.415260 3.926476 -0.049563
											}
										}
									}
								}
								JOINT RightHandIndex1
								{
									OFFSET -11.334419 -0.901459 3.706815
									CHANNELS 3 Xrotation Yrotation Zrotation
									JOINT RightHandIndex2
									{
										OFFSET -3.283112 0.000000 0.000000
										CHANNELS 3 Xrotation Yrotation Zrotation
										JOINT RightHandIndex3
										{
											OFFSET -3.323853 0.000000 0.000000
											CHANNELS 3 Xrotation Yrotation Zrotation
											End Site
											{
												OFFSET 1.135597 3.097809 0.402452
											}
										}
									}
								}
								JOINT RightHandMiddle1
								{
									OFFSET -11.335861 0.000000 0.000000
									CHANNELS 3 Xrotation Yrotation Zrotation
									JOINT RightHandMiddle2
									{
										OFFSET -3.410492 0.000000 0.000000
										CHANNELS 3 Xrotation Yrotation Zrotation
										JOINT RightHandMiddle3
										{
											OFFSET -3.312172 0.000000 0.000000
											CHANNELS 3 Xrotation Yrotation Zrotation
											End Site
											{
												OFFSET 1.150200 3.080154 0.400270
											}
										}
									}
								}
								JOINT RightHandRing1
								{
									OFFSET -11.514786 -0.013176 -3.003090
									CHANNELS 3 Xrotation Yrotation Zrotation
									JOINT RightHandRing2
									{
										OFFSET -3.053307 0.000000 0.000000
										CHANNELS 3 Xrotation Yrotation Zrotation
										JOINT RightHandRing3
										{
											OFFSET -3.295807 0.000000 0.000000
											CHANNELS 3 Xrotation Yrotation Zrotation
											End Site
											{
												OFFSET 1.281006 3.013344 0.375733
											}
										}
									}
								}
								JOINT RightHandPinky1
								{
									OFFSET -10.518692 -0.960396 -5.730441
									CHANNELS 3 Xrotation Yrotation Zrotation
									JOINT RightHandPinky2
									{
										OFFSET -2.861649 0.000000 0.000000
										CHANNELS 3 Xrotation Yrotation Zrotation
										JOINT RightHandPinky3
										{
											OFFSET -2.863380 0.000000 0.000000
											CHANNELS 3 Xrotation Yrotation Zrotation
											End Site
											{
												OFFSET 0.843597 2.711159 0.369971
											}
										}
									}
								}
							}
							JOINT RSleeve
							{
								OFFSET -6.676277 -0.344902 -1.011730
								CHANNELS 3 Xrotation Yrotation Zrotation
								End Site
								{
									OFFSET 0.000000 14.885353 0.000000
								}
							}
						}
					}
				}
				JOINT Backpack
				{
					OFFSET 0.000000 -2.471497 36.677502
					CHANNELS 3 Xrotation Yrotation Zrotation
					End Site
					{
						OFFSET 0.000000 20.427315 0.000000
					}
				}
				JOINT Hood
				{
					OFFSET 0.000000 18.754097 -10.431000
					CHANNELS 3 Xrotation Yrotation Zrotation
					JOINT Hood1
					{
						OFFSET 0.000000 -5.011002 -7.685901
						CHANNELS 3 Xrotation Yrotation Zrotation
						End Site
						{
							OFFSET 0.000000 9.175140 0.000000
						}
					}
				}
				JOINT LHoodieString
				{
					OFFSET 5.250500 16.397697 3.089900
					CHANNELS 3 Xrotation Yrotation Zrotation
					JOINT LHoodieString1
					{
						OFFSET 0.257700 -6.364304 3.694600
						CHANNELS 3 Xrotation Yrotation Zrotation
						JOINT LHoodieString2
						{
							OFFSET 0.000000 -9.643799 2.679100
							CHANNELS 3 Xrotation Yrotation Zrotation
							End Site
							{
								OFFSET 0.000000 10.009018 0.000000
							}
						}
					}
				}
				JOINT RHoodieString
				{
					OFFSET -5.250500 16.397697 3.089900
					CHANNELS 3 Xrotation Yrotation Zrotation
					JOINT RHoodieString1
					{
						OFFSET -0.257700 -6.364304 3.694600
						CHANNELS 3 Xrotation Yrotation Zrotation
						JOINT RHoodieString2
						{
							OFFSET 0.000000 -9.643799 2.679100
							CHANNELS 3 Xrotation Yrotation Zrotation
							End Site
							{
								OFFSET 0.000000 10.009018 0.000000
							}
						}
					}
				}
			}
			JOINT LBackpack_Strap
			{
				OFFSET 15.223200 -7.719803 -6.610900
				CHANNELS 3 Xrotation Yrotation Zrotation
				End Site
				{
					OFFSET 0.000000 16.040596 0.000000
				}
			}
			JOINT RBackpack_Strap
			{
				OFFSET -15.223000 -7.719803 -6.610900
				CHANNELS 3 Xrotation Yrotation Zrotation
				End Site
				{
					OFFSET 0.000000 16.040596 0.000000
				}
			}
		}
	}
	JOINT BoyFacialAnim_Joint
	{
		OFFSET 1.000000 -82.208099 -1.550900
		CHANNELS 3 Xrotation Yrotation Zrotation
		End Site
		{
			OFFSET 0.000000 30.012791 0.000000
		}
	}
}
MOTION
Frames: 4
Frame Time: 0.016667
-0.334643 111.390350 -0.412851 5.762217 -19.786305 11.712003 0.000000 0.000000 0.000000 -92.563475 -5.133410 24.236634 56.402473 -5.175227 -14.159532 13.540480 -7.950202 11.656391 0.000001 0.000000 -0.000000 0.000001 0.000000 -0.000000 -0.000004 0.000001 0.000000 -98.440224 4.833053 9.625231 125.377370 -7.604527 -2.383272 29.436500 1.639463 -3.828279 0.000000 0.000001 0.000000 0.000000 0.000001 0.000000 -0.000003 0.000002 -0.000002 34.329152 -6.971556 -11.404504 -1.919979 -0.704208 -1.068979 -1.861948 -0.963994 -0.958728 -27.161323 7.980846 9.093857 17.861672 13.973910 -17.635106 -0.000001 -0.000000 -0.000000 -0.000001 -0.000000 -0.000000 -0.000001 -0.000000 -0.000000 14.342933 -28.036217 31.312982 -54.053291 10.158293 9.211011 -39.508679 -62.618341 -18.464453 0.677882 -3.694911 5.616508 -4.212055 -7.549100 8.222274 2.840629 18.398136 -2.239051 0.000000 0.000002 -0.000006 13.557858 -2.400528 2.442063 -0.158552 0.312408 -41.706884 0.000000 -0.000002 -0.000002 8.872546 -0.946679 -8.698855 0.333523 0.703011 -39.129771 -0.000002 0.000003 0.000001 6.417774 2.640980 -21.662592 0.073912 0.361666 -38.094007 -0.000000 -0.000001 -0.000000 -5.773322 7.351764 -20.511941 0.248341 0.299221 -53.404027 -0.000002 0.000003 0.000000 0.000001 0.000003 -0.000002 3.778675 7.559639 -24.581255 -73.831422 -14.404399 -24.052231 -51.826150 60.836693 47.494875 9.141617 7.948693 -22.976022 -13.975091 13.836794 -0.527676 10.118377 -39.599446 -4.011407 0.000001 -0.000002 0.000002 11.271630 3.607145 -9.674682 -0.308893 -0.132937 59.230164 0.000000 -0.000000 0.000002 5.407465 -9.717484 -10.964786 0.477112 -0.644348 52.079892 -0.000000 -0.000001 -0.000000 4.999355 -19.199894 -5.805059 0.293140 -0.312913 63.639782 -0.000001 -0.000002 0.000002 10.206723 -27.451345 11.592866 0.317958 -0.173615 82.243865 0.000002 0.000002 0.000001 0.000000 -0.000002 0.000001 0.000000 -0.000000 0.000000 0.000000 -0.000000 0.000000 0.000000 -0.000000 0.000000 0.000000 -0.000000 0.000000 0.000000 -0.000000 0.000002 0.000000 -0.000000 -0.000001 0.000000 -0.000000 0.000000 0.000000 -0.000000 0.000002 0.000000 -0.000000 -0.000001 0.000004 -0.000000 0.000000 0.000004 -0.000000 0.000000 0.000000 0.000000 0.000000 
-0.360549 111.358246 3.523114 5.410325 -19.784949 11.440499 0.000000 -0.000002 -0.000001 -90.246968 -4.235171 22.887252 53.928298 -5.516773 -13.834801 14.581452 -7.132527 11.372059 0.000001 0.000000 0.000001 0.000001 0.000000 0.000001 -0.000000 -0.000002 -0.000000 -100.122637 4.462567 9.957660 122.773716 -8.946900 -2.466084 30.801083 1.645855 -0.122100 -0.000002 -0.000001 -0.000000 -0.000002 -0.000001 -0.000000 0.000001 -0.000000 -0.000001 34.069151 -7.180825 -11.258004 -1.705506 -0.826086 -1.172770 -1.718719 -1.101915 -0.901944 -26.754450 7.923676 9.300321 17.616748 14.580975 -17.741030 0.000004 -0.000000 -0.000000 0.000004 -0.000000 -0.000000 0.000004 -0.000000 -0.000000 13.329965 -28.376424 28.717346 -55.448569 15.227885 10.991224 -68.123747 -71.308172 -47.693025 11.233190 4.906553 -1.251270 -4.209885 -7.549285 8.222476 2.840289 18.399222 -2.238933 -0.000003 0.000001 -0.000002 13.557225 -2.399536 2.530733 -0.158565 0.312335 -41.632274 -0.000001 -0.000000 -0.000002 8.872458 -0.946782 -8.589853 0.333085 0.702594 -39.040470 0.000000 0.000002 0.000000 6.418079 2.639984 -21.526864 0.073503 0.361147 -37.984915 0.000001 -0.000002 -0.000003 -5.768886 7.348697 -20.334971 0.247773 0.298832 -53.267313 -0.000001 -0.000003 0.000001 -0.000001 0.000003 -0.000003 3.694515 8.731529 -22.067281 -77.217665 -16.836293 -27.351914 -55.432319 62.389789 51.618021 16.842389 16.542156 -19.530854 -13.852522 13.688651 -0.611937 9.965763 -39.155156 -3.888433 -0.000001 -0.000001 -0.000002 11.276149 3.678410 -9.745175 -0.306492 -0.132145 58.914664 0.000002 0.000001 0.000000 5.433430 -9.621400 -11.002367 0.474230 -0.645748 51.742101 -0.000003 0.000000 0.000002 5.046145 -19.088461 -5.820359 0.290776 -0.313054 63.102328 -0.000001 0.000001 0.000001 10.132968 -27.291932 11.300276 0.315813 -0.176122 81.291313 -0.000000 -0.000004 -0.000000 0.000000 0.000000 0.000002 0.000003 0.000000 -0.000000 0.000003 0.000000 -0.000000 0.000003 0.000000 -0.000000 0.000003 0.000000 -0.000000 0.000003 0.000000 0.000001 0.000001 -0.000000 -0.000000 0.000003 0.000000 -0.000000 0.000003 0.000000 0.000001 0.000001 -0.000000 -0.000000 0.000001 0.000000 0.000001 0.000001 0.000000 0.000001 0.000000 -0.000002 -0.000001 
-0.466496 111.267105 7.394281 5.068910 -20.019576 11.253422 -0.000000 0.000000 -0.000001 -87.329569 -4.287646 21.183403 51.468078 -3.697930 -13.212867 15.782371 -7.883694 10.848628 -0.000000 0.000000 -0.000000 -0.000000 0.000000 -0.000000 0.000000 0.000000 0.000000 -99.352785 4.595823 9.335878 118.615510 -9.646528 -2.442893 30.976175 1.304703 3.417398 0.000001 -0.000001 0.000000 0.000001 -0.000001 0.000000 -0.000002 0.000001 -0.000000 33.226763 -7.233490 -10.997101 -1.359168 -0.996959 -1.581734 -1.479998 -1.199184 -0.910619 -25.746980 7.766830 9.873792 17.083727 15.326021 -18.187470 0.000002 0.000000 -0.000000 0.000002 0.000000 -0.000000 0.000002 0.000000 -0.000000 11.862429 -27.977706 26.191824 -55.866006 16.655995 11.417588 -90.273756 -72.339995 -70.563559 19.159073 8.441122 -6.769437 -4.203533 -7.550154 8.223043 2.839357 18.402352 -2.238589 0.000004 -0.000001 0.000004 13.555465 -2.396747 2.784502 -0.158629 0.312157 -41.417956 0.000000 -0.000001 -0.000002 8.872083 -0.947080 -8.279680 0.332000 0.701588 -38.784819 -0.000001 -0.000001 -0.000002 6.418736 2.637039 -21.143305 0.072412 0.359712 -37.674251 -0.000001 0.000003 -0.000000 -5.757112 7.340631 -19.839311 0.246149 0.297707 -52.881046 -0.000001 0.000001 -0.000002 -0.000001 0.000001 0.000000 3.769988 11.074703 -19.093292 -80.238692 -18.402070 -30.381566 -59.729321 63.810079 56.438850 22.161732 22.494989 -18.508131 -13.517971 13.281427 -0.839663 9.540052 -37.919533 -3.541091 -0.000001 -0.000000 -0.000002 11.289809 3.880621 -9.945031 -0.299519 -0.129953 58.013865 0.000000 -0.000001 -0.000000 5.507121 -9.351069 -11.108396 0.465971 -0.649702 50.784082 -0.000002 0.000000 -0.000000 5.176624 -18.778275 -5.863766 0.284164 -0.313263 61.589947 0.000001 0.000000 0.000006 9.940372 -26.854680 10.500333 0.309586 -0.182935 78.639342 0.000000 0.000000 -0.000001 -0.000000 -0.000002 -0.000001 -0.000001 -0.000001 0.000000 -0.000001 -0.000001 0.000000 -0.000001 -0.000001 0.000000 -0.000001 -0.000001 0.000000 -0.000001 -0.000001 0.000000 -0.000001 0.000000 -0.000000 -0.000001 -0.000001 0.000000 -0.000001 -0.000001 0.000000 -0.000001 0.000000 -0.000000 0.000001 0.000000 -0.000000 0.000001 0.000000 -0.000000 -0.000000 0.000000 -0.000001 
-0.634290 111.064178 11.175241 4.721717 -20.467902 11.140960 -0.000000 0.000001 0.000000 -83.943940 -5.157167 19.233779 48.561573 -1.255691 -12.420923 17.261809 -8.720211 9.986085 -0.000001 -0.000000 0.000001 -0.000001 -0.000000 0.000001 0.000001 0.000001 0.000000 -96.777859 4.960191 8.228306 113.359946 -8.821080 -2.289127 30.316095 -0.372289 7.558438 -0.000003 0.000001 -0.000002 -0.000003 0.000001 -0.000002 0.000001 0.000001 -0.000001 31.891833 -7.100073 -10.630782 -0.846946 -1.225807 -2.282627 -0.947540 -1.280961 -1.065721 -24.462872 7.530891 10.745750 16.255900 16.199320 -18.782568 -0.000001 -0.000000 0.000001 -0.000001 -0.000000 0.000001 -0.000001 -0.000000 0.000001 9.913588 -27.228090 23.284591 -55.741037 16.364886 11.372912 -102.459074 -71.986007 -83.327925 24.322524 9.290150 -10.411716 -4.193081 -7.551402 8.223958 2.837679 18.407211 -2.238127 -0.000001 0.000003 -0.000002 13.552908 -2.392314 3.184918 -0.158799 0.311855 -41.077765 -0.000003 0.000000 -0.000002 8.871442 -0.947711 -7.793596 0.330242 0.699893 -38.381264 -0.000000 -0.000002 -0.000000 6.419552 2.632723 -20.547448 0.070581 0.357285 -37.187276 -0.000001 0.000004 0.000000 -5.740874 7.329633 -19.078033 0.243624 0.295902 -52.280805 -0.000001 0.000001 0.000002 -0.000001 0.000003 0.000001 3.679097 13.977356 -16.002230 -82.618269 -19.392432 -32.930538 -63.588808 64.803810 60.717267 25.040904 25.957316 -18.710120 -13.022071 12.669916 -1.171280 8.888082 -36.040354 -2.998069 -0.000001 0.000001 -0.000001 11.314038 4.196126 -10.256880 -0.288794 -0.126898 56.596662 -0.000000 -0.000000 0.000002 5.623054 -8.933881 -11.273146 0.452875 -0.655368 49.288417 -0.000002 -0.000002 -0.000000 5.376737 -18.306171 -5.932406 0.273744 -0.313135 59.252649 0.000002 -0.000003 0.000003 9.678810 -26.201517 9.310126 0.298898 -0.192551 74.597106 0.000000 0.000002 0.000002 0.000000 0.000003 0.000002 0.000003 -0.000001 0.000000 0.000003 -0.000001 0.000000 0.000003 -0.000001 0.000000 0.000003 -0.000001 0.000000 0.000003 -0.000001 0.000000 0.000001 -0.000000 0.000001 0.000003 -0.000001 0.000000 0.000003 -0.000001 0.000000 0.000001 -0.000000 0.000001 -0.000001 -0.000000 -0.000000 -0.000001 -0.000000 -0.000000 -0.000000 0.000001 0.000000 
